<svg xmlns="http://www.w3.org/2000/svg"  viewBox="0 0 50 50" width="50px" height="50px" baseProfile="basic"><path fill="#0cbc35" d="M25,49C11.767,49,1,38.233,1,25S11.767,1,25,1s24,10.767,24,24S38.233,49,25,49z M25,5	C13.972,5,5,13.972,5,25s8.972,20,20,20s20-8.972,20-20S36.028,5,25,5z"/><path fill="#2dea55" d="M37.8,23.6c-10.984-8.238-25.028-3.747-25.171-3.701l-1.262-3.796	C12.021,15.886,27.509,10.88,40.2,20.4L37.8,23.6z"/><path fill="#2dea55" d="M34.8,30.672c-9.23-6.922-21.054-3.148-21.171-3.109l-1.262-3.796	c0.562-0.187,13.898-4.496,24.833,3.706L34.8,30.672z"/><path fill="#2dea55" d="M30.8,37.203c-6.595-4.943-15.087-2.245-15.173-2.219l-1.26-3.797	c0.426-0.143,10.536-3.407,18.833,2.816L30.8,37.203z"/></svg>